<svg width="47" height="58" viewBox="0 0 47 58" fill="none" xmlns="http://www.w3.org/2000/svg">
<path d="M46 15.3284V56C46 56.5523 45.5523 57 45 57H2C1.44772 57 1 56.5523 1 56V2C1 1.44772 1.44772 1 2 1H31.6716C31.9368 1 32.1911 1.10536 32.3787 1.29289L39.0429 7.95711L45.7071 14.6213C45.8946 14.8089 46 15.0632 46 15.3284Z" fill="#091432" stroke="white" stroke-width="2"/>
<rect x="9" y="24" width="25" height="4" fill="white"/>
<rect x="9" y="33" width="30" height="4" fill="white"/>
<rect x="9" y="42" width="17" height="4" fill="white"/>
<path d="M8.648 14.012V6.524H10.388C10.82 6.524 11.184 6.564 11.48 6.644C11.776 6.724 12.028 6.84 12.236 6.992C12.444 7.136 12.628 7.32 12.788 7.544C12.956 7.768 13.092 8.02 13.196 8.3C13.308 8.58 13.388 8.888 13.436 9.224C13.492 9.552 13.52 9.912 13.52 10.304C13.496 10.88 13.42 11.396 13.292 11.852C13.164 12.308 12.972 12.696 12.716 13.016C12.46 13.336 12.128 13.584 11.72 13.76C11.32 13.928 10.828 14.012 10.244 14.012H8.648ZM9.44 13.352H10.208C10.784 13.352 11.252 13.236 11.612 13.004C11.98 12.772 12.252 12.432 12.428 11.984C12.604 11.536 12.688 10.992 12.68 10.352C12.68 9.696 12.6 9.136 12.44 8.672C12.28 8.208 12.028 7.852 11.684 7.604C11.348 7.356 10.9 7.232 10.34 7.232H9.44V13.352ZM17 14.132C16.432 14.132 15.948 13.984 15.548 13.688C15.148 13.392 14.844 12.96 14.636 12.392C14.428 11.816 14.324 11.12 14.324 10.304C14.324 9.512 14.428 8.832 14.636 8.264C14.844 7.688 15.148 7.248 15.548 6.944C15.948 6.632 16.432 6.476 17 6.476C17.576 6.476 18.06 6.632 18.452 6.944C18.852 7.248 19.156 7.688 19.364 8.264C19.572 8.832 19.676 9.512 19.676 10.304C19.676 11.12 19.572 11.816 19.364 12.392C19.156 12.96 18.852 13.392 18.452 13.688C18.06 13.984 17.576 14.132 17 14.132ZM17 13.4C17.384 13.4 17.708 13.28 17.972 13.04C18.244 12.8 18.452 12.452 18.596 11.996C18.74 11.532 18.812 10.968 18.812 10.304C18.812 9.672 18.74 9.128 18.596 8.672C18.452 8.208 18.244 7.848 17.972 7.592C17.708 7.336 17.384 7.208 17 7.208C16.624 7.208 16.3 7.336 16.028 7.592C15.756 7.848 15.548 8.208 15.404 8.672C15.26 9.128 15.188 9.672 15.188 10.304C15.188 10.968 15.26 11.532 15.404 11.996C15.548 12.452 15.756 12.8 16.028 13.04C16.3 13.28 16.624 13.4 17 13.4ZM23.42 14.12C23.012 14.12 22.632 14.048 22.28 13.904C21.928 13.752 21.616 13.52 21.344 13.208C21.08 12.896 20.872 12.5 20.72 12.02C20.568 11.54 20.492 10.968 20.492 10.304C20.492 9.72 20.548 9.212 20.66 8.78C20.772 8.34 20.924 7.972 21.116 7.676C21.308 7.38 21.528 7.144 21.776 6.968C22.024 6.792 22.284 6.664 22.556 6.584C22.828 6.504 23.1 6.464 23.372 6.464C23.916 6.464 24.38 6.6 24.764 6.872C25.148 7.136 25.436 7.492 25.628 7.94L24.908 8.276L24.8 8.324L24.764 8.24C24.788 8.176 24.788 8.12 24.764 8.072C24.74 8.016 24.696 7.932 24.632 7.82C24.432 7.548 24.224 7.368 24.008 7.28C23.8 7.184 23.58 7.136 23.348 7.136C23.036 7.136 22.752 7.208 22.496 7.352C22.248 7.488 22.032 7.692 21.848 7.964C21.672 8.228 21.536 8.552 21.44 8.936C21.352 9.32 21.308 9.756 21.308 10.244C21.308 10.716 21.36 11.144 21.464 11.528C21.576 11.912 21.724 12.244 21.908 12.524C22.1 12.804 22.32 13.02 22.568 13.172C22.824 13.324 23.096 13.4 23.384 13.4C23.584 13.4 23.776 13.364 23.96 13.292C24.152 13.22 24.328 13.116 24.488 12.98C24.648 12.836 24.784 12.672 24.896 12.488L25.52 12.896C25.28 13.296 24.992 13.6 24.656 13.808C24.32 14.016 23.908 14.12 23.42 14.12Z" fill="white"/>
</svg>
